[Header]
FileType HTR
DataType HTRS
FileVersion 1
NumSegments 22
NumFrames 5
DataFrameRate 24
EulerRotationOrder ZYX
CalibrationUnits mm
RotationUnits Degrees
GlobalAxisofGravity Y
BoneLengthAxis Y
ScaleFactor 1.0
[SegmentNames&Hierarchy]
reference	GLOBAL
Hips	reference
Spine	Hips
Spine1	Spine
Neck	Spine1
Head	Neck
LeftShoulder	Spine1
LeftArm	LeftShoulder
LeftForeArm	LeftArm
LeftHand	LeftForeArm
RightShoulder	Spine1
RightArm	RightShoulder
RightForeArm	RightArm
RightHand	RightForeArm
LeftUpLeg	Hips
LeftLeg	LeftUpLeg
LeftFoot	LeftLeg
LeftToeBase	LeftFoot
RightUpLeg	Hips
RightLeg	RightUpLeg
RightFoot	RightLeg
RightToeBase	RightFoot
[BasePosition]
reference	0	0	0	0	0	0	1
Hips	0	0	0	0	0	0	1
Spine	0	0	0	0	-0	90	1
Spine1	0	0	0	0	0	0	1
Neck	0	0	0	-7.352430803	-7.352430803	90	1
Head	0	0	0	0	-0	90	1
LeftShoulder	0	0	0	0	0	0	1
LeftArm	0	0	0	0	0	0	1
LeftForeArm	0	0	0	0	0	0	1
LeftHand	0	0	0	0	0	0	1
RightShoulder	0	0	0	0	-0	180	1
RightArm	0	0	0	0	-0	180	1
RightForeArm	0	0	0	0	-0	180	1
RightHand	0	0	0	0	-0	180	1
LeftUpLeg	0	0	0	0	-0	-90	1
LeftLeg	0	0	0	0	-0	-90	1
LeftFoot	0	0	0	66.57150701	-66.57150701	-90	1
LeftToeBase	0	0	0	0	-90	0	1
RightUpLeg	0	0	0	0	-0	-90	1
RightLeg	0	0	0	0	-0	-90	1
RightFoot	0	0	0	66.57150701	-66.57150701	-90	1
RightToeBase	0	0	0	0	-90	0	1
[reference]
19	0	0	0	0	-0	0	1.0
20	0	0	0	0	-0	0	1.0
21	0	0	0	0	-0	0	1.0
22	0	0	0	0	-0	0	1.0
23	0	0	0	0	-0	0	1.0
[Hips]
19	1.265394211	8.790577888	0.617560029	0.7329711914	-121.9116821	4.063186646	1.0
20	1.325752139	8.747333527	0.7374081016	0.6630206108	-122.5042572	4.03409481	1.0
21	1.398927927	8.721179008	0.8682217598	1.710652709	-123.5680084	3.738638401	1.0
22	1.485876322	8.701361656	0.9979951978	2.913943291	-125.0449219	3.582510948	1.0
23	1.56467545	8.71115303	1.116195917	2.9483881	-126.5940475	3.660407782	1.0
[Spine]
19	0	0.7478299737	0	-10.85810375	1.857775211	-88.86607361	1.0
20	0	0.7478299737	0	-10.08517647	1.89990592	-89.25099945	1.0
21	0	0.7478299737	0	-10.18410015	2.437833786	-89.54489136	1.0
22	0	0.7478299737	0	-10.28125381	3.611763954	-89.81283569	1.0
23	0	0.7478299737	0	-9.630722046	5.091461182	-89.73384857	1.0
[Spine1]
19	0	2.049309969	0	10.47285748	0.5365439057	0.5242021084	1.0
20	0	2.049309969	0	10.89700317	0.5105182528	0.9767835736	1.0
21	0	2.049309969	0	11.27261257	0.7134912014	0.8658665419	1.0
22	0	2.049309969	0	11.02800655	1.122353435	0.7405205369	1.0
23	0	2.049309969	0	10.98099136	1.669056416	0.35549891	1.0
[Neck]
19	0	2.231709957	0	-9.193252563	9.964241028	-84.95614624	1.0
20	0	2.231709957	0	-10.47297668	10.18144226	-85.19181061	1.0
21	0	2.231709957	0	-11.83074951	10.20693207	-85.0113678	1.0
22	0	2.231709957	0	-13.28656387	10.12344933	-84.91856384	1.0
23	0	2.231709957	0	-13.66030025	9.539604187	-85.24346924	1.0
[Head]
19	0	1.413589954	0.1823999882	-2.046239376	3.302716494	-96.0225296	1.0
20	0	1.413589954	0.1823999882	-2.129287481	3.425419331	-95.56912994	1.0
21	0	1.413589954	0.1823999882	-2.210908651	3.340546608	-95.14345551	1.0
22	0	1.413589954	0.1823999882	-2.105789661	3.153379917	-94.79899597	1.0
23	0	1.413589954	0.1823999882	-3.482141256	2.373901606	-93.68180847	1.0
[LeftShoulder]
19	0.3649300039	1.825889945	-0.04271000251	-10.27471638	-7.817927837	1.292319059	1.0
20	0.3649300039	1.825889945	-0.04271000251	-10.50267124	-7.927057266	1.630712867	1.0
21	0.3649300039	1.825889945	-0.04271000251	-11.15754128	-7.546377659	2.112547398	1.0
22	0.3649300039	1.825889945	-0.04271000251	-10.95316219	-7.426931381	2.350068808	1.0
23	0.3649300039	1.825889945	-0.04271000251	-10.61360168	-7.426590919	2.366803885	1.0
[LeftArm]
19	1.24003005	0	0	36.1227417	9.563801765	-79.91437531	1.0
20	1.24003005	0	0	35.25061417	9.690102577	-80.0016098	1.0
21	1.24003005	0	0	33.24972916	10.37794876	-79.43846893	1.0
22	1.24003005	0	0	29.64569092	11.23302078	-78.63293457	1.0
23	1.24003005	0	0	25.65822983	12.69639111	-77.4956131	1.0
[LeftForeArm]
19	2.847419977	0	0	-12.74366951	-14.26929188	-3.227127075	1.0
20	2.847419977	0	0	-11.93368435	-15.08840084	-3.525941372	1.0
21	2.847419977	0	0	-9.353540421	-15.69909	-5.138895512	1.0
22	2.847419977	0	0	-7.075534821	-15.52915001	-7.08808136	1.0
23	2.847419977	0	0	-5.169425011	-14.36928177	-9.113847733	1.0
[LeftHand]
19	2.258270025	0	0	-12.99240208	-5.14798975	-3.452170849	1.0
20	2.258270025	0	0	-12.24107933	-5.598075867	-3.264428139	1.0
21	2.258270025	0	0	-9.953872681	-5.399218559	-2.30062747	1.0
22	2.258270025	0	0	-8.013317108	-4.884426117	-0.6994442344	1.0
23	2.258270025	0	0	-6.319963455	-4.044949532	-0.007220670581	1.0
[RightShoulder]
19	-0.3646599948	1.825889945	-0.04271000251	-7.885122299	10.10048866	-180.0169373	1.0
20	-0.3646599948	1.825889945	-0.04271000251	-8.361076355	10.60548973	-180.166626	1.0
21	-0.3646599948	1.825889945	-0.04271000251	-8.789070129	11.19265652	-180.2795105	1.0
22	-0.3646599948	1.825889945	-0.04271000251	-9.128343582	11.89253807	-180.4775085	1.0
23	-0.3646599948	1.825889945	-0.04271000251	-9.211549759	12.49808121	-180.7635498	1.0
[RightArm]
19	-1.24003005	0	0	48.96100998	-0.06883350015	-101.2573395	1.0
20	-1.24003005	0	0	49.95604706	0.6308416724	-101.7060089	1.0
21	-1.24003005	0	0	52.18919373	1.702823997	-102.1662521	1.0
22	-1.24003005	0	0	55.0959816	2.870005131	-102.4144745	1.0
23	-1.24003005	0	0	59.10805511	4.429786205	-102.1943359	1.0
[RightForeArm]
19	-2.847419977	0	0	2.004574776	14.92655754	178.7558289	1.0
20	-2.847419977	0	0	2.479662895	15.37456894	178.8638	1.0
21	-2.847419977	0	0	3.772320747	16.73522758	179.5779724	1.0
22	-2.847419977	0	0	5.475762367	18.98584938	180.2535706	1.0
23	-2.847419977	0	0	5.598044872	22.13894653	179.507019	1.0
[RightHand]
19	-2.258270025	0	0	2.025354624	8.044808388	-182.01828	1.0
20	-2.258270025	0	0	2.460552692	7.908230782	-182.4996338	1.0
21	-2.258270025	0	0	3.603184223	7.96682024	-183.3151398	1.0
22	-2.258270025	0	0	5.110607147	8.314808846	-184.4280243	1.0
23	-2.258270025	0	0	5.265405178	9.115818024	-185.457428	1.0
[LeftUpLeg]
19	0.9119900465	0	0	-9.147052765	-4.264039993	89.58633423	1.0
20	0.9119900465	0	0	-11.17332745	-5.590423107	89.93096161	1.0
21	0.9119900465	0	0	-12.89543438	-5.160618305	89.73815918	1.0
22	0.9119900465	0	0	-14.6276741	-3.579277515	89.51013184	1.0
23	0.9119900465	0	0	-14.31452179	-3.390725613	90.00580597	1.0
[LeftLeg]
19	0	-4.371409893	0	21.98379898	-6.111951828	87.35032654	1.0
20	0	-4.371409893	0	24.65647316	-4.745230675	85.79118347	1.0
21	0	-4.371409893	0	24.91920471	-4.290288448	85.1144104	1.0
22	0	-4.371409893	0	24.37015152	-4.033370018	84.74984741	1.0
23	0	-4.371409893	0	21.73261833	-2.911243439	84.01904297	1.0
[LeftFoot]
19	0	-3.918009996	0	-92.7550354	111.7708969	-46.04885864	1.0
20	0	-3.918009996	0	-93.74497223	112.7833252	-45.24427795	1.0
21	0	-3.918009996	0	-94.89640808	114.2834015	-45.00221252	1.0
22	0	-3.918009996	0	-95.89192963	115.4457703	-45.91076279	1.0
23	0	-3.918009996	0	-94.06694794	116.522995	-45.80253601	1.0
[LeftToeBase]
19	0	-0.5927900076	1.367989898	0	0	0	1.0
20	0	-0.5927900076	1.367989898	0	0	0	1.0
21	0	-0.5927900076	1.367989898	0	0	0	1.0
22	0	-0.5927900076	1.367989898	0	0	0	1.0
23	0	-0.5927900076	1.367989898	0	0	0	1.0
[RightUpLeg]
19	-0.9119900465	0	0	-9.440055847	-5.455685616	95.59749603	1.0
20	-0.9119900465	0	0	-12.60321808	-6.909331799	96.04859924	1.0
21	-0.9119900465	0	0	-16.4140892	-8.225261688	96.76712799	1.0
22	-0.9119900465	0	0	-20.00789833	-8.690591812	97.35414886	1.0
23	-0.9119900465	0	0	-20.70868683	-10.03439045	98.17227173	1.0
[RightLeg]
19	0	-4.371409893	0	19.8597641	3.89477253	86.30202484	1.0
20	0	-4.371409893	0	24.48784447	5.546718597	85.3955307	1.0
21	0	-4.371409893	0	28.17250633	6.638589859	83.90302277	1.0
22	0	-4.371409893	0	31.22334099	7.021502972	83.48265076	1.0
23	0	-4.371409893	0	33.3081665	5.414631844	82.52696991	1.0
[RightFoot]
19	0	-3.918009996	0	40.17146301	57.39326859	79.26322937	1.0
20	0	-3.918009996	0	40.63532257	56.3032341	81.71359253	1.0
21	0	-3.918009996	0	43.18177414	54.1764679	85.98657227	1.0
22	0	-3.918009996	0	43.3966217	52.13372421	87.07670593	1.0
23	0	-3.918009996	0	42.46695709	52.10118103	86.50708008	1.0
[RightToeBase]
19	0	-0.5927900076	1.367989898	0	0	0	1.0
20	0	-0.5927900076	1.367989898	0	0	0	1.0
21	0	-0.5927900076	1.367989898	0	0	0	1.0
22	0	-0.5927900076	1.367989898	0	0	0	1.0
23	0	-0.5927900076	1.367989898	0	0	0	1.0
[EndOfFile]
